<?xml version="1.0" encoding="UTF-8"?>
<svg id="Capa_2" data-name="Capa 2" xmlns="http://www.w3.org/2000/svg" viewBox="0 0 1556.16 2053.6">
  <defs>
    <style>
      .cls-1 {
        fill: #00d4ff;
      }

      .cls-1, .cls-2 {
        stroke-width: 0px;
      }

      .cls-2 {
        fill: #ccf3ff;
      }
    </style>
  </defs>
  <g id="Capa_1-2" data-name="Capa 1">
    <g>
      <path class="cls-1" d="m803.84,527.05l-445.33-.04V0s1038.96.04,1038.96.04c43.74,0,79.19,35.46,79.19,79.2v384.01c0,37.96-12.85,74.81-36.46,104.54l-560.86,706.12-203.55,253.14h205.66s0,521.83,0,521.83l-801.8,4.72C35.74,2053.86,0,2018.34,0,1974.43v-387.51c0-38.28,13.07-75.41,37.04-105.25l766.81-954.62Z"/>
      <path class="cls-2" d="m1543.09,1811.69l-399.82,230.84c-17.42,10.06-39.2-2.51-39.2-22.63v-461.68c0-20.12,21.78-32.69,39.2-22.63l399.82,230.84c17.42,10.06,17.42,35.2,0,45.26Z"/>
      <rect class="cls-2" x="1.96" y=".04" width="107.76" height="526.93" rx="2" ry="2"/>
      <rect class="cls-2" x="166.77" y=".04" width="107.76" height="526.93" rx="2" ry="2"/>
      <rect class="cls-2" x="939.44" y="1525.59" width="107.76" height="526.93" rx="2" ry="2"/>
    </g>
  </g>
</svg>