<?xml version="1.0" encoding="UTF-8"?>
<svg width="32px" height="32px" viewBox="0 0 32 32" version="1.1" xmlns="http://www.w3.org/2000/svg">
    <g stroke="none" stroke-width="1" fill="none" fill-rule="evenodd">
        <circle fill="#F7931A" cx="16" cy="16" r="16"></circle>
        <path d="M22.5,14.5 C22.9,12.1 21.1,11 18.7,10.5 L19.4,7.7 L17.5,7.3 L16.8,10 C16.3,9.9 15.8,9.8 15.3,9.7 L16,7 L14.1,6.6 L13.4,9.4 C13,9.3 12.6,9.2 12.2,9.1 L12.2,9.1 L9.5,8.5 L9.1,10.5 C9.1,10.5 10.5,10.8 10.4,10.8 C11.2,11 11.3,11.5 11.3,11.9 L10.5,15.1 C10.5,15.1 10.6,15.1 10.6,15.1 C10.6,15.1 10.5,15.1 10.5,15.1 L9.4,19.6 C9.3,19.8 9.1,20.1 8.6,20 C8.6,20 7.2,19.7 7.2,19.7 L6.5,21.9 L9,22.5 C9.5,22.6 9.9,22.7 10.3,22.8 L9.6,25.6 L11.5,26 L12.2,23.2 C12.7,23.3 13.2,23.4 13.7,23.5 L13,26.3 L14.9,26.7 L15.6,23.9 C18.8,24.5 21.2,24.3 22.2,21.4 C23,19 22.2,17.7 20.5,16.8 C21.7,16.5 22.6,15.7 22.5,14.5 L22.5,14.5 Z M18.2,20.2 C17.6,22.6 13.7,21.4 12.5,21.1 L13.4,17.3 C14.6,17.6 18.8,17.7 18.2,20.2 Z M18.8,14.5 C18.3,16.7 15,15.7 14,15.4 L14.8,11.9 C15.8,12.2 19.3,12.2 18.8,14.5 Z" fill="#FFFFFF"></path>
    </g>
</svg>